<svg xmlns="http://www.w3.org/2000/svg" width="60" height="60" viewBox="0 0 60 60">
  <g id="Group_10424" data-name="Group 10424" transform="translate(0 0.326)">
    <circle id="Ellipse_122" data-name="Ellipse 122" cx="30" cy="30" r="30" transform="translate(0 -0.326)" fill="#fff"/>
    <path id="facebook" d="M127.03,11.5H129.4v9.74a.348.348,0,0,0,.348.348h4.012a.348.348,0,0,0,.348-.348V11.542h2.72a.348.348,0,0,0,.346-.308l.413-3.586a.348.348,0,0,0-.346-.388H134.1V5.012c0-.678.365-1.021,1.085-1.021h2.048a.348.348,0,0,0,.348-.348V.351A.348.348,0,0,0,137.237,0h-2.823c-.02,0-.064,0-.129,0a5.41,5.41,0,0,0-3.537,1.333,3.709,3.709,0,0,0-1.234,3.3V7.259H127.03a.348.348,0,0,0-.348.348v3.54A.348.348,0,0,0,127.03,11.5Z" transform="translate(-102.299 19.049)" fill="#3b5997"/>
  </g>
</svg>
