<svg xmlns="http://www.w3.org/2000/svg" width="60" height="60" viewBox="0 0 60 60">
  <g id="Group_10426" data-name="Group 10426" transform="translate(-1498.999 -950.001)">
    <g id="Group_10407" data-name="Group 10407" transform="translate(1499.324 950.326)">
      <circle id="Ellipse_124" data-name="Ellipse 124" cx="30" cy="30" r="30" transform="translate(-0.325 -0.325)" fill="#fff"/>
      <g id="google" transform="translate(18 18)">
        <path id="Path_2142" data-name="Path 2142" d="M5.551,107.421a6.252,6.252,0,0,1,.885-3.214v-3.992H2.443a11.848,11.848,0,0,0,0,14.412H6.436v-3.992A6.252,6.252,0,0,1,5.551,107.421Z" transform="translate(0 -95.579)" fill="#fbbd00"/>
        <path id="Path_2143" data-name="Path 2143" d="M198.775,373.842,196,376.617l2.775,2.775a11.752,11.752,0,0,0,7.206-2.443v-3.988h-3.988A6.29,6.29,0,0,1,198.775,373.842Z" transform="translate(-186.934 -355.709)" fill="#0f9d58"/>
        <path id="Path_2144" data-name="Path 2144" d="M56.815,325.477l-3.992,3.992a12.03,12.03,0,0,0,1.025,1.167,11.764,11.764,0,0,0,8.373,3.468v-5.551A6.293,6.293,0,0,1,56.815,325.477Z" transform="translate(-50.38 -310.422)" fill="#31aa52"/>
        <path id="Path_2145" data-name="Path 2145" d="M267.842,200.038a11.942,11.942,0,0,0-.194-2.145l-.1-.569H256v5.551h5.618a6.263,6.263,0,0,1-2.4,2.574l3.988,3.988a12.032,12.032,0,0,0,1.167-1.025A11.764,11.764,0,0,0,267.842,200.038Z" transform="translate(-244.158 -188.197)" fill="#3c79e6"/>
        <path id="Path_2146" data-name="Path 2146" d="M203.224,7.393l.491.491,3.925-3.925-.491-.491A11.764,11.764,0,0,0,198.775,0L196,2.775l2.775,2.775A6.25,6.25,0,0,1,203.224,7.393Z" transform="translate(-186.934 0)" fill="#cf2d48"/>
        <path id="Path_2147" data-name="Path 2147" d="M62.22,5.551V0a11.764,11.764,0,0,0-8.373,3.468,12.02,12.02,0,0,0-1.025,1.167l3.992,3.992A6.294,6.294,0,0,1,62.22,5.551Z" transform="translate(-50.379 0)" fill="#eb4132"/>
      </g>
    </g>
  </g>
</svg>
