<svg xmlns="http://www.w3.org/2000/svg" width="17.698" height="16.677" viewBox="0 0 17.698 16.677">
  <path id="hide-svgrepo-com-3" d="M65.872,60,81.188,75.316l-1.361,1.361-3.148-3.148a7.969,7.969,0,0,1-3.829.936,8.392,8.392,0,0,1-5.02-1.659A12.585,12.585,0,0,1,64,68.339a14.194,14.194,0,0,1,1.617-2.3A8.81,8.81,0,0,1,67.4,64.254l-2.893-2.893Zm11.061,8.339a4.067,4.067,0,0,0-4.084-4.084L71.02,62.425a9.537,9.537,0,0,1,1.829-.213,8.5,8.5,0,0,1,5.105,1.7A12.989,12.989,0,0,1,81.7,68.339,9.845,9.845,0,0,1,80.89,69.7a12.265,12.265,0,0,1-1.149,1.446Zm-4.084,4.084a4.016,4.016,0,0,0,2.127-.6l-1.234-1.234a3.093,3.093,0,0,1-.893.128,2.258,2.258,0,0,1-1.659-.681,2.329,2.329,0,0,1-.723-1.7,2.515,2.515,0,0,1,.17-.851l-1.276-1.276a4.016,4.016,0,0,0-.6,2.127,4.067,4.067,0,0,0,4.084,4.084Z" transform="translate(-64 -60)" fill="#888e9b"/>
</svg>
